<svg xmlns="http://www.w3.org/2000/svg" aria-hidden="true" style="position:absolute;width:0;height:0;overflow:hidden">
  <defs>
  <symbol id="icon-icon-menu" viewBox="0 0 47 32">
   <path d="M-.221 2.077c0-1.205.977-2.182 2.182-2.182h42.965a2.182 2.182 0 0 1 0 4.364H1.961A2.182 2.182 0 0 1-.221 2.077zm0 13.538c0-1.205.977-2.182 2.182-2.182h42.965a2.182 2.182 0 0 1 0 4.364H1.961a2.182 2.182 0 0 1-2.182-2.182zm0 13.539c0-1.205.977-2.182 2.182-2.182h42.965a2.182 2.182 0 0 1 0 4.364H1.961a2.182 2.182 0 0 1-2.182-2.182z"/>
  </symbol>
  <symbol id="icon-circle-up" viewBox="0 0 32 32">
      <path d="M0 16c0 8.837 7.163 16 16 16s16-7.163 16-16S24.837 0 16 0 0 7.163 0 16zm29 0c0 7.18-5.82 13-13 13S3 23.18 3 16 8.82 3 16 3s13 5.82 13 13z"/>
      <path d="m22.086 20.914 2.829-2.829-8.914-8.914-8.914 8.914 2.828 2.828 6.086-6.086z"/>
    </symbol>
  <symbol id="icon-mail" viewBox="0 0 43 32">
      <path d="M37.333 0h-32c-2.2 0-3.98 1.8-3.98 4l-.02 24c0 2.2 1.8 4 4 4h32c2.2 0 4-1.8 4-4V4c0-2.2-1.8-4-4-4zm-.8 8.5-14.14 8.84c-.64.4-1.48.4-2.12 0L6.133 8.5c-.5-.32-.8-.86-.8-1.44 0-1.34 1.46-2.14 2.6-1.44l13.4 8.38 13.4-8.38c1.14-.7 2.6.1 2.6 1.44 0 .58-.3 1.12-.8 1.44z"/>
    </symbol>
    <symbol id="icon-person-black" viewBox="0 0 32 32">
      <path d="M16 16c2.947 0 5.333-2.387 5.333-5.333S18.946 5.334 16 5.334c-2.947 0-5.333 2.387-5.333 5.333S13.054 16 16 16zm0 2.667c-3.56 0-10.667 1.787-10.667 5.333v1.333c0 .733.6 1.333 1.333 1.333h18.667c.733 0 1.333-.6 1.333-1.333V24c0-3.547-7.107-5.333-10.667-5.333z"/>
    </symbol>
    <symbol id="icon-tel" viewBox="0 0 32 32">
      <path d="m28.865 21.822-4.525-.517a3.543 3.543 0 0 0-2.921 1.015l-3.278 3.278A26.8 26.8 0 0 1 6.402 13.859l3.296-3.296a3.545 3.545 0 0 0 1.015-2.921l-.517-4.489A3.566 3.566 0 0 0 6.651 0H3.569C1.556 0-.118 1.675.006 3.687.95 18.9 13.117 31.049 28.312 31.993c2.013.125 3.687-1.55 3.687-3.563v-3.082c.018-1.799-1.336-3.313-3.135-3.527z"/>
    </symbol>
    <symbol id="icon-home" viewBox="0 0 32 32">
      <path d="M32 18.451 16 6.031 0 18.451v-5.064L16 .967l16 12.42zM28 18v12h-8v-8h-8v8H4V18l12-9z"/>
    </symbol>
    <symbol id="icon-pencil" viewBox="0 0 32 32">
      <path d="M27 0a5 5 0 0 1 4 8l-2 2-7-7 2-2c.836-.628 1.874-1 3-1zM2 23l-2 9 9-2 18.5-18.5-7-7L2 23zm20.362-11.638-14 14-1.724-1.724 14-14 1.724 1.724z"/>
    </symbol>
    <symbol id="icon-envelop" viewBox="0 0 32 32">
      <path d="M29 4H3C1.35 4 0 5.35 0 7v20c0 1.65 1.35 3 3 3h26c1.65 0 3-1.35 3-3V7c0-1.65-1.35-3-3-3zM12.461 17.199 4 23.789V8.113l8.461 9.086zM5.512 8h20.976L16 15.875 5.512 8zm7.278 9.553L16 21l3.21-3.447L25.79 26H6.211l6.58-8.447zm6.749-.354L28 8.113v15.676l-8.461-6.59z"/>
    </symbol>
    <symbol id="icon-location2" viewBox="0 0 32 32">
      <path d="M16 0C10.477 0 6 4.477 6 10c0 10 10 22 10 22s10-12 10-22c0-5.523-4.477-10-10-10zm0 16.125a6.125 6.125 0 1 1 0-12.25 6.125 6.125 0 0 1 0 12.25zM12.125 10a3.875 3.875 0 1 1 7.75 0 3.875 3.875 0 0 1-7.75 0z"/>
    </symbol>
    <symbol id="icon-clock" viewBox="0 0 32 32">
      <path d="M20.586 23.414 14 16.828V8h4v7.172l5.414 5.414zM16 0C7.163 0 0 7.163 0 16s7.163 16 16 16 16-7.163 16-16S24.837 0 16 0zm0 28C9.373 28 4 22.627 4 16S9.373 4 16 4s12 5.373 12 12-5.373 12-12 12z"/>
    </symbol>
    <symbol id="icon-gift" viewBox="0 0 32 32">
      <path d="M24.11 10a12.62 12.62 0 0 0 1.608-1.348c1.044-1.044 1.742-2.328 1.966-3.616.246-1.412-.115-2.723-.988-3.597-.697-.697-1.641-1.065-2.73-1.065-1.551 0-3.185.744-4.483 2.043-2.077 2.077-3.288 4.945-3.94 6.991-.482-2.056-1.444-4.833-3.313-6.702-1.003-1.003-2.285-1.518-3.495-1.518-.989 0-1.931.344-2.633 1.046-1.562 1.562-1.351 4.306.471 6.128.65.65 1.409 1.189 2.21 1.638H2.001v8h2v14h24V18h2v-8h-5.89zm-3.037-5.993c.866-.866 1.948-1.384 2.892-1.384.334 0 .803.07 1.139.406.813.813.357 2.697-.977 4.031-1.373 1.373-3.221 2.318-4.826 2.939h-1.584c.58-1.798 1.627-4.264 3.356-5.993zM7.31 5.028c-.022-.285-.002-.82.381-1.203.32-.32.743-.387 1.042-.387.664 0 1.358.313 1.904.859 1.059 1.058 1.93 2.743 2.521 4.871l.047.171-.171-.047c-2.128-.591-3.813-1.462-4.871-2.521-.495-.495-.805-1.13-.853-1.743zM14 30H6V17h8v13zm0-14H4v-4h10v4zm12 14h-8V17h8v13zm2-14H18v-4h10v4z"/>
    </symbol>
    <symbol id="icon-fire" viewBox="0 0 32 32">
      <path d="M10.031 32c-2.133-4.438-.997-6.981.642-9.376 1.795-2.624 2.258-5.221 2.258-5.221s1.411 1.834.847 4.703c2.493-2.775 2.963-7.196 2.587-8.889C22 17.155 24.408 25.681 21.163 32c17.262-9.767 4.294-24.38 2.036-26.027.753 1.646.895 4.433-.625 5.785C20.001 1.999 13.637-.001 13.637-.001c.753 5.033-2.728 10.536-6.084 14.648-.118-2.007-.243-3.392-1.298-5.312-.237 3.646-3.023 6.617-3.777 10.27-1.022 4.946.765 8.568 7.555 12.394z"/>
    </symbol>
    <symbol id="icon-shield" viewBox="0 0 32 32">
      <path d="M30 0 16 4 2 0s-.141 1.616 0 4l14 4.378L30 4c.141-2.384 0-4 0-4zM2.256 6.097C3.006 13.931 5.803 27.104 16 32c10.197-4.896 12.995-18.069 13.744-25.903L16 11.264 2.256 6.097z"/>
    </symbol>
    <symbol id="icon-power" viewBox="0 0 32 32">
      <path d="M12 0 0 16h12L4 32l28-20H16L28 0z"/>
    </symbol>
    <symbol id="icon-clipboard" viewBox="0 0 32 32">
      <path d="M29 4h-9a4 4 0 0 0-8 0H3a1 1 0 0 0-1 1v26a1 1 0 0 0 1 1h26a1 1 0 0 0 1-1V5a1 1 0 0 0-1-1zM16 2a2 2 0 1 1 .001 3.999A2 2 0 0 1 16 2zm12 28H4V6h4v3a1 1 0 0 0 1 1h14a1 1 0 0 0 1-1V6h4v24z"/>
      <path d="m14 26.828-6.414-7.414 1.828-1.828L14 21.172l8.586-7.586 1.829 1.828z"/>
    </symbol>
    <symbol id="icon-menu" viewBox="0 0 32 32">
      <path d="M2 6h28v6H2zm0 8h28v6H2zm0 8h28v6H2z"/>
    </symbol>
    <symbol id="icon-sun" viewBox="0 0 32 32">
      <path d="M16 26a2 2 0 0 1 2 2v2a2 2 0 1 1-4 0v-2a2 2 0 0 1 2-2zm0-20a2 2 0 0 1-2-2V2a2 2 0 1 1 4 0v2a2 2 0 0 1-2 2zm14 8a2 2 0 1 1 0 4h-2a2 2 0 1 1 0-4h2zM6 16a2 2 0 0 1-2 2H2a2 2 0 1 1 0-4h2a2 2 0 0 1 2 2zm19.899 7.071 1.414 1.414a2 2 0 1 1-2.828 2.828l-1.414-1.414a2 2 0 1 1 2.828-2.828zM6.101 8.929 4.687 7.515a2 2 0 1 1 2.828-2.828l1.414 1.414a2 2 0 1 1-2.828 2.828zm19.798 0a2 2 0 1 1-2.828-2.828l1.414-1.414a2 2 0 1 1 2.828 2.828l-1.414 1.414zM6.101 23.071a2 2 0 1 1 2.828 2.828l-1.414 1.414a2 2 0 1 1-2.828-2.828l1.414-1.414zM16 8a8 8 0 1 0 0 16 8 8 0 0 0 0-16zm0 13a5 5 0 1 1 .001-10.001A5 5 0 0 1 16 21z"/>
    </symbol>
    <symbol id="icon-star-empty" viewBox="0 0 32 32">
      <path d="m32 12.408-11.056-1.607L16 .783l-4.944 10.018L0 12.408l8 7.798-1.889 11.011L16 26.018l9.889 5.199L24 20.206l8-7.798zM16 23.547l-6.983 3.671 1.334-7.776-5.65-5.507 7.808-1.134 3.492-7.075 3.492 7.075 7.807 1.134-5.65 5.507 1.334 7.776-6.983-3.671z"/>
    </symbol>
    <symbol id="icon-man-woman" viewBox="0 0 32 32">
      <path d="M8 3a3 3 0 1 1-6 0 3 3 0 0 1 6 0zM26 3a3 3 0 1 1-6 0 3 3 0 0 1 6 0zM8 8H2a2 2 0 0 0-2 2v10h2v12h2.5V20h1v12H8V20h2V10a2 2 0 0 0-2-2zM30.469 16 32 14.891 27.835 8.45A1 1 0 0 0 27 8h-8a1 1 0 0 0-.835.45L14 14.891 15.531 16l3.458-4.487 1.202 2.804L16 22h3.833l.667 10h2V22h1v10h2l.667-10H30l-4.191-7.683 1.202-2.804L30.469 16z"/>
    </symbol>
    <symbol id="icon-point-up" viewBox="0 0 32 32">
      <path d="M30 19v-5a3.004 3.004 0 0 0-4.472-2.614 3 3 0 0 0-4.528-.62 2.987 2.987 0 0 0-3-.595V3c0-1.654-1.346-3-3-3s-3 1.346-3 3v12.334l-5.501-2.932A3.004 3.004 0 0 0 2 15.001c0 .824.327 1.592.922 2.163l.023.022 7.474 6.815H9a1 1 0 0 0-1 1v6a1 1 0 0 0 1 1h20a1 1 0 0 0 1-1v-6a1 1 0 0 0-1-1h-1.382l2.276-4.553c.069-.139.106-.292.106-.447zm-2 8a1 1 0 1 1-2 0 1 1 0 0 1 2 0zm0-8.236L25.382 24H13.387l-9.088-8.286a1.002 1.002 0 0 1 1.18-1.592c.017.01.033.02.051.029l7 3.732a1 1 0 0 0 1.47-.882v-14c0-.551.449-1 1-1s1 .449 1 1v10a1 1 0 0 0 2 0c0-.551.449-1 1-1s1 .449 1 1a1 1 0 0 0 2 0c0-.551.449-1 1-1s1 .449 1 1v1a1 1 0 0 0 2 0c0-.551.449-1 1-1s1 .449 1 1v4.764z"/>
    </symbol>
    <symbol id="icon-point-right" viewBox="0 0 32 32">
      <path d="M13 30h5c1.654 0 3-1.346 3-3a2.97 2.97 0 0 0-.387-1.472A3.001 3.001 0 0 0 22 23c0-.768-.29-1.469-.766-2a2.987 2.987 0 0 0 .595-3H29c1.654 0 3-1.346 3-3s-1.346-3-3-3H16.666l2.932-5.501A3.004 3.004 0 0 0 16.999 2c-.824 0-1.592.327-2.163.922l-.022.023-6.815 7.474V9a1 1 0 0 0-1-1h-6a1 1 0 0 0-1 1v20a1 1 0 0 0 1 1h6a1 1 0 0 0 1-1v-1.382l4.553 2.276c.139.069.292.106.447.106zm-8-2a1 1 0 1 1 0-2 1 1 0 0 1 0 2zm8.236 0L8 25.382V13.387l8.287-9.088a1.002 1.002 0 0 1 1.591 1.18c-.01.017-.02.033-.029.051l-3.732 7a1 1 0 0 0 .882 1.47h14c.551 0 1 .449 1 1s-.449 1-1 1h-10a1 1 0 0 0 0 2c.551 0 1 .449 1 1s-.449 1-1 1a1 1 0 0 0 0 2c.551 0 1 .449 1 1s-.449 1-1 1h-1a1 1 0 0 0 0 2c.551 0 1 .449 1 1s-.449 1-1 1h-4.764z"/>
    </symbol>
    <symbol id="icon-point-down" viewBox="0 0 32 32">
      <path d="M30 13v5c0 1.654-1.346 3-3 3a2.97 2.97 0 0 1-1.472-.387A3.002 3.002 0 0 1 23 22c-.768 0-1.469-.29-2-.766a2.987 2.987 0 0 1-3 .595V29c0 1.654-1.346 3-3 3s-3-1.346-3-3V16.666l-5.501 2.932A3.004 3.004 0 0 1 2 16.999c0-.824.327-1.592.921-2.163l.023-.022 7.474-6.815H8.999a1 1 0 0 1-1-1v-6a1 1 0 0 1 1-1h20a1 1 0 0 1 1 1v6a1 1 0 0 1-1 1h-1.382l2.276 4.553c.07.139.106.292.106.447zm-2-8a1 1 0 1 0-2 0 1 1 0 0 0 2 0zm0 8.236L25.382 8H13.387l-9.088 8.287a1.002 1.002 0 0 0 1.18 1.591c.017-.01.033-.02.051-.029l7-3.732a1 1 0 0 1 1.47.882v14c0 .551.449 1 1 1s1-.449 1-1v-10a1 1 0 0 1 2 0c0 .551.449 1 1 1s1-.449 1-1a1 1 0 0 1 2 0c0 .551.449 1 1 1s1-.449 1-1v-1a1 1 0 0 1 2 0c0 .551.449 1 1 1s1-.449 1-1v-4.764z"/>
    </symbol>
    <symbol id="icon-point-left" viewBox="0 0 32 32">
      <path d="M19 30h-5a3.004 3.004 0 0 1-2.614-4.472 3 3 0 0 1-.62-4.528 2.987 2.987 0 0 1-.595-3H3c-1.654 0-3-1.346-3-3s1.346-3 3-3h12.334l-2.932-5.501A3.004 3.004 0 0 1 15.001 2c.824 0 1.592.327 2.163.921l.022.023 6.815 7.474V8.999a1 1 0 0 1 1-1h6a1 1 0 0 1 1 1v20a1 1 0 0 1-1 1h-6a1 1 0 0 1-1-1v-1.382l-4.553 2.276a1.006 1.006 0 0 1-.447.106zm8-2a1 1 0 1 0 0-2 1 1 0 0 0 0 2zm-8.236 0L24 25.382V13.387l-8.287-9.088a1.002 1.002 0 0 0-1.591 1.18c.01.017.02.033.029.051l3.732 7a1 1 0 0 1-.882 1.47h-14c-.551 0-1 .449-1 1s.449 1 1 1h10a1 1 0 0 1 0 2c-.551 0-1 .449-1 1s.449 1 1 1a1 1 0 0 1 0 2c-.551 0-1 .449-1 1s.449 1 1 1h1a1 1 0 0 1 0 2c-.551 0-1 .449-1 1s.449 1 1 1h4.764z"/>
    </symbol>
    <symbol id="icon-plus" viewBox="0 0 32 32">
      <path d="M31 12H20V1a1 1 0 0 0-1-1h-6a1 1 0 0 0-1 1v11H1a1 1 0 0 0-1 1v6a1 1 0 0 0 1 1h11v11a1 1 0 0 0 1 1h6a1 1 0 0 0 1-1V20h11a1 1 0 0 0 1-1v-6a1 1 0 0 0-1-1z"/>
    </symbol>
    <symbol id="icon-minus" viewBox="0 0 32 32">
      <path d="M0 13v6a1 1 0 0 0 1 1h30a1 1 0 0 0 1-1v-6a1 1 0 0 0-1-1H1a1 1 0 0 0-1 1z"/>
    </symbol>
    <symbol id="icon-checkmark2" viewBox="0 0 32 32">
      <path d="M12.42 28.678-.013 16.44l6.168-6.071 6.265 6.167L25.846 3.322l6.168 6.071L12.42 28.678zM3.372 16.441l9.048 8.905L28.628 9.393l-2.782-2.739L12.42 19.868l-6.265-6.167-2.782 2.739z"/>
    </symbol>
    <symbol id="icon-instagram1" viewBox="0 0 32 32">
      <path d="M16 2.881c4.275 0 4.781.019 6.462.094 1.563.069 2.406.331 2.969.55a4.952 4.952 0 0 1 1.837 1.194 5.015 5.015 0 0 1 1.2 1.838c.219.563.481 1.412.55 2.969.075 1.688.094 2.194.094 6.463s-.019 4.781-.094 6.463c-.069 1.563-.331 2.406-.55 2.969a4.94 4.94 0 0 1-1.194 1.837 5.02 5.02 0 0 1-1.837 1.2c-.563.219-1.413.481-2.969.55-1.688.075-2.194.094-6.463.094s-4.781-.019-6.463-.094c-1.563-.069-2.406-.331-2.969-.55a4.952 4.952 0 0 1-1.838-1.194 5.02 5.02 0 0 1-1.2-1.837c-.219-.563-.481-1.413-.55-2.969-.075-1.688-.094-2.194-.094-6.463s.019-4.781.094-6.463c.069-1.563.331-2.406.55-2.969a4.964 4.964 0 0 1 1.194-1.838 5.015 5.015 0 0 1 1.838-1.2c.563-.219 1.412-.481 2.969-.55 1.681-.075 2.188-.094 6.463-.094zM16 0c-4.344 0-4.887.019-6.594.094-1.7.075-2.869.35-3.881.744-1.056.412-1.95.956-2.837 1.85a7.833 7.833 0 0 0-1.85 2.831C.444 6.538.169 7.7.094 9.4.019 11.113 0 11.656 0 16s.019 4.887.094 6.594c.075 1.7.35 2.869.744 3.881.413 1.056.956 1.95 1.85 2.837a7.82 7.82 0 0 0 2.831 1.844c1.019.394 2.181.669 3.881.744 1.706.075 2.25.094 6.594.094s4.888-.019 6.594-.094c1.7-.075 2.869-.35 3.881-.744 1.05-.406 1.944-.956 2.831-1.844s1.438-1.781 1.844-2.831c.394-1.019.669-2.181.744-3.881.075-1.706.094-2.25.094-6.594s-.019-4.887-.094-6.594c-.075-1.7-.35-2.869-.744-3.881a7.506 7.506 0 0 0-1.831-2.844A7.82 7.82 0 0 0 26.482.843C25.463.449 24.301.174 22.601.099c-1.712-.081-2.256-.1-6.6-.1z"/>
      <path d="M16 7.781c-4.537 0-8.219 3.681-8.219 8.219s3.681 8.219 8.219 8.219 8.219-3.681 8.219-8.219A8.221 8.221 0 0 0 16 7.781zm0 13.55a5.331 5.331 0 1 1 0-10.663 5.331 5.331 0 0 1 0 10.663zM26.462 7.456a1.919 1.919 0 1 1-3.838 0 1.919 1.919 0 0 1 3.838 0z"/>
    </symbol>
    <symbol id="icon-telegram" viewBox="0 0 32 32">
      <path d="M16 0C7.162 0 0 7.162 0 16s7.162 16 16 16 16-7.163 16-16S24.837 0 16 0zm7.863 10.969-2.625 12.369c-.181.881-.712 1.087-1.45.681l-4-2.956-1.919 1.869c-.225.219-.4.4-.8.4-.519 0-.431-.194-.606-.688L11.1 18.169l-3.956-1.231c-.856-.262-.862-.85.194-1.269l15.412-5.95c.7-.319 1.381.169 1.113 1.25z"/>
    </symbol>
    <symbol id="icon-number" viewBox="0 0 32 32">
      <path d="M16 3C8.82 3 3 8.82 3 16s5.82 13 13 13 13-5.82 13-13S23.18 3 16 3zm0 24C9.925 27 5 22.075 5 16S9.925 5 16 5s11 4.925 11 11-4.925 11-11 11zm1.248-11.781c.963-.525 1.443-1.228 1.443-2.108 0-.621-.234-1.177-.705-1.67-.571-.602-1.33-.903-2.275-.903-.553 0-1.052.104-1.497.311s-.792.493-1.042.855c-.248.362-.435.847-.559 1.454l1.773.302c.051-.439.193-.772.426-1.001s.516-.343.845-.343c.334 0 .603.101.804.301.201.201.302.471.302.809 0 .398-.138.716-.413.957-.273.24-.673.353-1.195.339l-.213 1.565a3.37 3.37 0 0 1 .885-.144c.374 0 .691.141.952.423s.391.665.391 1.147c0 .509-.136.914-.407 1.214s-.607.45-1.004.45c-.37 0-.686-.125-.945-.375-.261-.25-.42-.612-.479-1.086l-1.859.226c.096.843.442 1.525 1.04 2.047s1.35.782 2.258.782c.957 0 1.758-.309 2.401-.929s.965-1.368.965-2.247c0-.605-.172-1.122-.515-1.55-.346-.427-.804-.703-1.377-.826z"/>
    </symbol>
    <symbol id="icon-number1" viewBox="0 0 32 32">
      <path d="M16 3C8.82 3 3 8.82 3 16s5.82 13 13 13 13-5.82 13-13S23.18 3 16 3zm0 24C9.925 27 5 22.075 5 16S9.925 5 16 5s11 4.925 11 11-4.925 11-11 11zm-1.172-14.291c-.589.458-1.134.77-1.635.934v1.742a6.633 6.633 0 0 0 2.484-1.455v7.111h2.047v-10h-1.686a3.704 3.704 0 0 1-1.21 1.668z"/>
    </symbol>
    <symbol id="icon-number11" viewBox="0 0 32 32">
      <path d="M16 3C8.82 3 3 8.82 3 16s5.82 13 13 13 13-5.82 13-13S23.18 3 16 3zm0 24C9.925 27 5 22.075 5 16S9.925 5 16 5s11 4.925 11 11-4.925 11-11 11zm1.564-9.223c.607-.556 1.027-.982 1.26-1.278.351-.447.607-.875.77-1.282.161-.408.242-.838.242-1.289 0-.793-.283-1.457-.848-1.99s-1.342-.8-2.331-.8c-.902 0-1.654.23-2.256.69s-.96 1.218-1.073 2.275l1.914.191c.036-.56.173-.96.41-1.201s.555-.361.956-.361c.405 0 .723.115.952.345.23.23.346.56.346.988 0 .387-.133.779-.396 1.176-.195.287-.727.834-1.592 1.64-1.076.998-1.796 1.799-2.16 2.403s-.584 1.242-.656 1.917h6.734V19.42h-3.819a3.34 3.34 0 0 1 .394-.534c.16-.183.545-.552 1.153-1.109z"/>
    </symbol>
    <symbol id="icon-alarm" viewBox="0 0 32 32">
      <path d="M16 4C8.268 4 2 10.268 2 18s6.268 14 14 14 14-6.268 14-14S23.732 4 16 4zm0 25.25C9.787 29.25 4.75 24.213 4.75 18S9.787 6.75 16 6.75 27.25 11.787 27.25 18 22.213 29.25 16 29.25zM29.212 8.974a6 6 0 0 0-9.959-6.643 16.011 16.011 0 0 1 9.96 6.643zM12.748 2.331a6 6 0 0 0-9.96 6.643 16.008 16.008 0 0 1 9.96-6.643z"/>
      <path d="M16 18v-8h-2v10h8v-2z"/>
    </symbol>
    <symbol id="icon-close" viewBox="0 0 32 32">
      <path d="M32 3.223 28.777 0 16 12.777 3.223 0 0 3.223 12.777 16 0 28.777 3.223 32 16 19.223 28.777 32 32 28.777 19.223 16 32 3.223z"/>
    </symbol>
  </defs>
</svg>
